<svg width="30" height="30" viewBox="0 0 30 30" fill="none" xmlns="http://www.w3.org/2000/svg">
<path d="M15 3.75014C17.225 3.75014 19.4001 4.40994 21.2502 5.64611C23.1002 6.88228 24.5422 8.63929 25.3937 10.695C26.2451 12.7506 26.4679 15.0126 26.0338 17.1949C25.5998 19.3772 24.5283 21.3818 22.955 22.9551C21.3816 24.5284 19.3771 25.5999 17.1948 26.034C15.0125 26.4681 12.7505 26.2453 10.6948 25.3938C8.63915 24.5423 6.88214 23.1004 5.64597 21.2503C4.40981 19.4003 3.75001 17.2252 3.75001 15.0001C3.76642 12.0215 4.95695 9.16956 7.06319 7.06333C9.16943 4.95709 12.0214 3.76655 15 3.75014ZM15 1.25014C12.2805 1.25014 9.62209 2.05657 7.36092 3.56744C5.09974 5.07831 3.33737 7.22576 2.29666 9.73825C1.25596 12.2507 0.983662 15.0154 1.51421 17.6826C2.04476 20.3499 3.35432 22.7999 5.27729 24.7229C7.20026 26.6458 9.65028 27.9554 12.3175 28.4859C14.9848 29.0165 17.7494 28.7442 20.2619 27.7035C22.7744 26.6628 24.9218 24.9004 26.4327 22.6392C27.9436 20.3781 28.75 17.7196 28.75 15.0001C28.7583 13.1922 28.4083 11.4004 27.7202 9.72847C27.0321 8.05651 26.0196 6.53743 24.7412 5.25898C23.4627 3.98052 21.9436 2.96802 20.2717 2.27995C18.5997 1.59187 16.808 1.24187 15 1.25014Z" fill="white"/>
<path d="M20.8125 8.31247L12.5 12.5L8.31247 20.8125C8.2701 20.9345 8.26295 21.0659 8.29183 21.1918C8.32071 21.3176 8.38446 21.4328 8.47578 21.5242C8.56709 21.6155 8.68228 21.6792 8.80815 21.7081C8.93402 21.737 9.06547 21.7298 9.18747 21.6875L17.5 17.5L21.6875 9.18747C21.7298 9.06547 21.737 8.93402 21.7081 8.80815C21.6792 8.68228 21.6155 8.56709 21.5242 8.47578C21.4328 8.38446 21.3176 8.32071 21.1918 8.29183C21.0659 8.26295 20.9345 8.2701 20.8125 8.31247ZM15 16.25C14.7527 16.25 14.5111 16.1767 14.3055 16.0393C14.0999 15.902 13.9397 15.7067 13.8451 15.4783C13.7505 15.2499 13.7258 14.9986 13.774 14.7561C13.8222 14.5136 13.9413 14.2909 14.1161 14.1161C14.2909 13.9413 14.5136 13.8222 14.7561 13.774C14.9986 13.7258 15.2499 13.7505 15.4783 13.8451C15.7067 13.9397 15.902 14.0999 16.0393 14.3055C16.1767 14.5111 16.25 14.7527 16.25 15C16.25 15.3315 16.1183 15.6494 15.8838 15.8838C15.6494 16.1183 15.3315 16.25 15 16.25Z" fill="white"/>
</svg>
