<svg width="31" height="31" viewBox="0 0 31 31" fill="none" xmlns="http://www.w3.org/2000/svg">
<path d="M24.5596 6.61213H22.6704V5.66752C22.6698 5.16665 22.4706 4.68646 22.1164 4.33229C21.7622 3.97812 21.282 3.7789 20.7812 3.77832H9.44593C8.94506 3.7789 8.46487 3.97812 8.1107 4.33229C7.75653 4.68646 7.5573 5.16665 7.55673 5.66752V6.61213H5.66752C5.16665 6.6127 4.68646 6.81193 4.33229 7.1661C3.97812 7.52027 3.7789 8.00046 3.77832 8.50133V11.3351C3.77945 12.3369 4.17789 13.2973 4.88623 14.0056C5.59458 14.714 6.55498 15.1124 7.55673 15.1135H7.86089C8.25449 16.5595 9.06059 17.8595 10.1808 18.8549C11.301 19.8503 12.6868 20.498 14.1689 20.7189V24.5596H9.44593V26.4488H20.7812V24.5596H16.0581V20.7161C17.5596 20.5304 18.9702 19.8966 20.1059 18.8971C21.2416 17.8977 22.0497 16.5792 22.4248 15.1135H22.6704C23.6721 15.1124 24.6325 14.714 25.3409 14.0056C26.0492 13.2973 26.4476 12.3369 26.4488 11.3351V8.50133C26.4482 8.00046 26.249 7.52027 25.8948 7.1661C25.5406 6.81193 25.0604 6.6127 24.5596 6.61213ZM7.55673 13.2243C7.05586 13.2238 6.57566 13.0245 6.22149 12.6704C5.86732 12.3162 5.6681 11.836 5.66752 11.3351V8.50133H7.55673V13.2243ZM20.7812 13.2243C20.7812 13.9834 20.6287 14.7347 20.3328 15.4336C20.0369 16.1326 19.6037 16.7651 19.0587 17.2934C18.5138 17.8218 17.8682 18.2353 17.1604 18.5094C16.4526 18.7835 15.697 18.9127 14.9383 18.8892C13.4341 18.7959 12.0237 18.1262 11.0007 17.0194C9.97767 15.9127 9.4208 14.454 9.44593 12.9471V5.66752H20.7812V13.2243ZM24.5596 11.3351C24.559 11.836 24.3598 12.3162 24.0056 12.6704C23.6514 13.0245 23.1712 13.2238 22.6704 13.2243V8.50133H24.5596V11.3351Z" fill="white"/>
</svg>
